/* XPM */
static char * close_prelight_xpm[] = {
"34 36 2 1",
" 	c #282828",
".	c #803434",
"                                  ",
"                                  ",
"                                  ",
"                                  ",
"                                  ",
"                                  ",
"                                  ",
"                                  ",
"                                  ",
"                                  ",
"         ................         ",
"         ................         ",
"         ................         ",
"         ................         ",
"         ................         ",
"         ................         ",
"         ................         ",
"         ................         ",
"         ................         ",
"         ................         ",
"         ................         ",
"         ................         ",
"         ................         ",
"         ................         ",
"         ................         ",
"         ................         ",
"                                  ",
"                                  ",
"                                  ",
"                                  ",
"                                  ",
"                                  ",
"                                  ",
"                                  ",
"                                  ",
"                                  "};
