/* XPM */
static char * close_active_xpm[] = {
"32 36 2 1",
" 	c #282828",
".	c #A64444",
"                                ",
"                                ",
"                                ",
"                                ",
"                                ",
"                                ",
"                                ",
"                                ",
"                                ",
"                                ",
"                                ",
"         ..............         ",
"         ..............         ",
"         ..............         ",
"         ..............         ",
"         ..............         ",
"         ..............         ",
"         ..............         ",
"         ..............         ",
"         ..............         ",
"         ..............         ",
"         ..............         ",
"         ..............         ",
"         ..............         ",
"         ..............         ",
"                                ",
"                                ",
"                                ",
"                                ",
"                                ",
"                                ",
"                                ",
"                                ",
"                                ",
"                                ",
"                                "};
