/* XPM */
static char * hide_prelight_xpm[] = {
"34 36 2 1",
" 	c #282828",
".	c #8C7239",
"                                  ",
"                                  ",
"                                  ",
"                                  ",
"                                  ",
"                                  ",
"                                  ",
"                                  ",
"                                  ",
"                                  ",
"         ................         ",
"         ................         ",
"         ................         ",
"         ................         ",
"         ................         ",
"         ................         ",
"         ................         ",
"         ................         ",
"         ................         ",
"         ................         ",
"         ................         ",
"         ................         ",
"         ................         ",
"         ................         ",
"         ................         ",
"         ................         ",
"                                  ",
"                                  ",
"                                  ",
"                                  ",
"                                  ",
"                                  ",
"                                  ",
"                                  ",
"                                  ",
"                                  "};
