/* XPM */
static char * maximaize_active_xpm[] = {
"34 36 2 1",
" 	c #282828",
".	c #353535",
"                                  ",
"                                  ",
"                                  ",
"                                  ",
"                                  ",
"                                  ",
"                                  ",
"                                  ",
"                                  ",
"                                  ",
"         ................         ",
"         ................         ",
"         ................         ",
"         ................         ",
"         ................         ",
"         ................         ",
"         ................         ",
"         ................         ",
"         ................         ",
"         ................         ",
"         ................         ",
"         ................         ",
"         ................         ",
"         ................         ",
"         ................         ",
"         ................         ",
"                                  ",
"                                  ",
"                                  ",
"                                  ",
"                                  ",
"                                  ",
"                                  ",
"                                  ",
"                                  ",
"                                  "};
