/* XPM */
static char * maximize_prelight_xpm[] = {
"34 36 2 1",
" 	c #282828",
".	c #5A7269",
"                                  ",
"                                  ",
"                                  ",
"                                  ",
"                                  ",
"                                  ",
"                                  ",
"                                  ",
"                                  ",
"                                  ",
"         ................         ",
"         ................         ",
"         ................         ",
"         ................         ",
"         ................         ",
"         ................         ",
"         ................         ",
"         ................         ",
"         ................         ",
"         ................         ",
"         ................         ",
"         ................         ",
"         ................         ",
"         ................         ",
"         ................         ",
"         ................         ",
"                                  ",
"                                  ",
"                                  ",
"                                  ",
"                                  ",
"                                  ",
"                                  ",
"                                  ",
"                                  ",
"                                  "};
