/* XPM */
static char *menu_prelight_xpm[] = {
"30 38 52 1",
"a c #353535",
"b c #353535",
"c c #353535",
"d c #353535",
"e c #353535",
"f c #353535",
"g c #353535",
"h c #353535",
"i c #353535",
"j c #353535",
"k c #353535",
"l c #353535",
"m c #353535",
"n c #353535",
"o c #353535",
"p c #353535",
"q c #353535",
"r c #353535",
"s c #353535",
"t c #353535",
"u c #353535",
"v c #353535",
"w c #353535",
"x c #353535",
"y c #353535",
"z c #353535",
"A c #353535",
"B c #353535",
"C c #353535",
"D c #353535",
"E c #353535",
"F c #353535",
"G c #353535",
"H c #353535",
"I c #353535",
"J c #353535",
"K c #353535",
"L c #353535",
"M c #353535",
"N c #353535",
"O c #353535",
"P c #353535",
"Q c #353535",
"R c #353535",
"S c #353535",
"T c #353535",
"U c #353535",
"V c #353535",
"W c #353535",
"X c #353535",
"Y c #353535",
"Z c #353535",
"aaaaaaaaaaaaaaaaaaaaaaaaaaaaaa",
"bbbbbbbbbbbbbbbbbbbbbbbbbbbbbb",
"cccccccccccccccccccccccccccccc",
"cccccccccccccccccccccccccccccc",
"cccccccccccccccccccccccccccccc",
"ddddddddddefghiihgfedddddddddd",
"ddddddddjgklmnoonmlkkjdddddddd",
"dddddddkkmpobbqqbboprssldddddd",
"dddddlhtpbqqqqqqqqqqbpthlddddd",
"ddddlumoqqqqqqqqqqqqqqomuldddd",
"dddlhrbqqqqqqqqqqqqqqqqbrhjddd",
"dddktbqqqqqqqqqqqqqqqqqqbvsddd",
"llekoqqqqqqqqqqqqqqqqqqqqosell",
"ljgrqqqqqqqqqqqqqqqqqqqqqqrkjl",
"lwkbqqqqqqaxxxxxxxxaqqqqqqbkwl",
"lylqqqqqqqzAAAAAAAAzqqqqqqqlyl",
"juBqqqqqqqCDAAAAAADCqqqqqqqBgj",
"jhEqqqqqqqqFAAAAAAFqqqqqqqqEhj",
"jiGqqqqqqqqnHAAAAHnqqqqqqqqGij",
"eiGqqqqqqqqqIJAAJIqqqqqqqqqnie",
"ehKqqqqqqqqqqLAALqqqqqqqqqqKhe",
"euBqqqqqqqqqqMNNMqqqqqqqqqqOge",
"esjqqqqqqqqqqqPPqqqqqqqqqqqjse",
"eQkqqqqqqqqqqqqqqqqqqqqqqqqkwe",
"jegOqqqqqqqqqqqqqqqqqqqqqqOgej",
"jeekqqqqqqqqqqqqqqqqqqqqqqseej",
"eRRkcqqqqqqqqqqqqqqqqqqqqckRRe",
"eeRRhBqqqqqqqqqqqqqqqqqqBhRRee",
"eeeRRScqqqqqqqqqqqqqqqqcSeReee",
"eeeRRyTfqqqqqqqqqqqqqqyTyRReee",
"eeeeRRQUUdqqqqqqqqqqdUVQRReeee",
"eeeeeRRRgWWijvmmvjiWWgRRReeeee",
"eeeeeeeRRRkaXYxxYXakRRReeeeeee",
"RRRRRRRRwwwwwwwwwwwwwwRRRRRRRR",
"RRRRRRRRRRRwwwwwwwwRRRRRRRRRRR",
"RRRRRRRRRRRRRRRRRRRRRRRRRRRRRR",
"RRRRRRRRRRRRRRRRRRRRRRRRRRRRRR",
"ZZZZZZZZZZZZZZZZZZZZZZZZZZZZZZ"};
