/* XPM */
static char *menu_inactive_xpm[] = {
"30 38 7 1",
"a c #353535",
"b c #353535",
"c c #353535",
"d c #353535",
"e c #353535",
"f c #353535",
"g c #353535",
"aaaaaaaaaaaaaaaaaaaaaaaaaaaaaa",
"bbbbbbbbbbbbbbbbbbbbbbbbbbbbbb",
"cccccccccccccccccccccccccccccc",
"cccccccccccccccccccccccccccccc",
"cccccccccccccccccccccccccccccc",
"cccccccccccccccccccccccccccccc",
"cccccccccccccccccccccccccccccc",
"cccccccccccccccccccccccccccccc",
"cccccccccccccccccccccccccccccc",
"cccccccccccccccccccccccccccccc",
"cccccccccccccccccccccccccccccc",
"cccccccccccccccccccccccccccccc",
"cccccccccccccccccccccccccccccc",
"cccccccccccccccccccccccccccccc",
"ccccccccccddddddddddcccccccccc",
"ccccccccccdeeeeeeeedcccccccccc",
"ccccccccccddeeeeeeddcccccccccc",
"cccccccccccdeeeeeedccccccccccc",
"cccccccccccddeeeeddccccccccccc",
"ccccccccccccddeeddcccccccccccc",
"cccccccccccccceecccccccccccccc",
"cccccccccccccfddfccccccccccccc",
"cccccccccccccccccccccccccccccc",
"cccccccccccccccccccccccccccccc",
"cccccccccccccccccccccccccccccc",
"cccccccccccccccccccccccccccccc",
"cccccccccccccccccccccccccccccc",
"cccccccccccccccccccccccccccccc",
"cccccccccccccccccccccccccccccc",
"cccccccccccccccccccccccccccccc",
"cccccccccccccccccccccccccccccc",
"cccccccccccccccccccccccccccccc",
"cccccccccccccccccccccccccccccc",
"cccccccccccccccccccccccccccccc",
"cccccccccccccccccccccccccccccc",
"cccccccccccccccccccccccccccccc",
"cccccccccccccccccccccccccccccc",
"gggggggggggggggggggggggggggggg"};
