/* XPM */
static char *shade_inactive_xpm[] = {
"30 38 11 1",
"a c #353535",
"b c #353535",
"c c #353535",
"d c #353535",
"e c #353535",
"f c #353535",
"g c #353535",
"h c #353535",
"i c #353535",
"j c #353535",
"k c #353535",
"aaaaaaaaaaaaaaaaaaaaaaaaaaaaaa",
"bbbbbbbbbbbbbbbbbbbbbbbbbbbbbb",
"cccccccccccccccccccccccccccccc",
"cccccccccccccccccccccccccccccc",
"cccccccccccccccccccccccccccccc",
"cccccccccccccccccccccccccccccc",
"cccccccccccccccccccccccccccccc",
"cccccccccccccccccccccccccccccc",
"cccccccccccccccccccccccccccccc",
"cccccccccccccccccccccccccccccc",
"cccccccccccccccccccccccccccccc",
"cccccccccccccccccccccccccccccc",
"cccccccccccccccccccccccccccccc",
"cccccccccccccccccccccccccccccc",
"ccccccccccccccddcccccccccccccc",
"ccccccccccccedffdecccccccccccc",
"cccccccccccedffffdeccccccccccc",
"cccccccccccdffffffdccccccccccc",
"cccccccccccgffffffgccccccccccc",
"ccccccccccchgeffigjccccccccccc",
"ccccccccccccccffcccccccccccccc",
"ccccccccccccccffcccccccccccccc",
"ccccccccccccccffcccccccccccccc",
"cccccccccccccccccccccccccccccc",
"cccccccccccccccccccccccccccccc",
"cccccccccccccccccccccccccccccc",
"cccccccccccccccccccccccccccccc",
"cccccccccccccccccccccccccccccc",
"cccccccccccccccccccccccccccccc",
"cccccccccccccccccccccccccccccc",
"cccccccccccccccccccccccccccccc",
"cccccccccccccccccccccccccccccc",
"cccccccccccccccccccccccccccccc",
"cccccccccccccccccccccccccccccc",
"cccccccccccccccccccccccccccccc",
"cccccccccccccccccccccccccccccc",
"cccccccccccccccccccccccccccccc",
"kkkkkkkkkkkkkkkkkkkkkkkkkkkkkk"};
