/* XPM */
static char *stick_active_xpm[] = {
"30 38 30 1",
"a c #353535",
"b c #353535",
"c c #353535",
"d c #353535",
"e c #353535",
"f c #353535",
"g c #353535",
"h c #353535",
"i c #353535",
"j c #353535",
"k c #353535",
"l c #353535",
"m c #353535",
"n c #353535",
"o c #353535",
"p c #353535",
"q c #353535",
"r c #353535",
"s c #353535",
"t c #353535",
"u c #353535",
"v c #353535",
"w c #353535",
"x c #353535",
"y c #353535",
"z c #353535",
"A c #353535",
"B c #353535",
"C c #353535",
"D c #353535",
"aaaaaaaaaaaaaaaaaaaaaaaaaaaaaa",
"bbbbbbbbbbbbbbbbbbbbbbbbbbbbbb",
"cccccccccccccccccccccccccccccc",
"cccccccccccccccccccccccccccccc",
"cccccccccccccccccccccccccccccc",
"dddddddddddddddddddddddddddddd",
"dddddddddddddddddddddddddddddd",
"dddddddddddddddddddddddddddddd",
"dddddddddddddddddddddddddddddd",
"dddddddddddddddddddddddddddddd",
"dddddddddddddddddddddddddddddd",
"dddddddddddddddddddddddddddddd",
"eeeeeeeeeeeeeeeeeeeeeeeeeeeeee",
"eeeeeeeeeeeeeeeeeeeeeeeeeeeeee",
"eeeeeeeeeeeefghhaieeeeeeeeeeee",
"eeeeeeeeeeefjkllmcfeeeeeeeeeee",
"eeeeeeeeeeeinoooopieeeeeeeeeee",
"eeeeeeeeeeekooooookeeeeeeeeeee",
"eeeeeeeeeeelooooooleeeeeeeeeee",
"qqqqqqqqqqqroooooosqqqqqqqqqqq",
"qqqqqqqqqqqtoooooouqqqqqqqqqqq",
"qqqqqqqqqqqvsoooopwqqqqqqqqqqq",
"qqqqqqqqqqqqxyzzAwqqqqqqqqqqqq",
"qqqqqqqqqqqqqqqqqqqqqqqqqqqqqq",
"qqqqqqqqqqqqqqqqqqqqqqqqqqqqqq",
"qqqqqqqqqqqqqqqqqqqqqqqqqqqqqq",
"BBBBBBBBBBBBBBBBBBBBBBBBBBBBBB",
"BBBBBBBBBBBBBBBBBBBBBBBBBBBBBB",
"BBBBBBBBBBBBBBBBBBBBBBBBBBBBBB",
"BBBBBBBBBBBBBBBBBBBBBBBBBBBBBB",
"BBBBBBBBBBBBBBBBBBBBBBBBBBBBBB",
"BBBBBBBBBBBBBBBBBBBBBBBBBBBBBB",
"BBBBBBBBBBBBBBBBBBBBBBBBBBBBBB",
"CCCCCCCCCCCCCCCCCCCCCCCCCCCCCC",
"CCCCCCCCCCCCCCCCCCCCCCCCCCCCCC",
"CCCCCCCCCCCCCCCCCCCCCCCCCCCCCC",
"CCCCCCCCCCCCCCCCCCCCCCCCCCCCCC",
"DDDDDDDDDDDDDDDDDDDDDDDDDDDDDD"};
