/* XPM */
static char *stick_inactive_xpm[] = {
"30 38 8 1",
"a c #353535",
"b c #353535",
"c c #353535",
"d c #353535",
"e c #353535",
"f c #353535",
"g c #353535",
"h c #353535",
"aaaaaaaaaaaaaaaaaaaaaaaaaaaaaa",
"bbbbbbbbbbbbbbbbbbbbbbbbbbbbbb",
"cccccccccccccccccccccccccccccc",
"cccccccccccccccccccccccccccccc",
"cccccccccccccccccccccccccccccc",
"cccccccccccccccccccccccccccccc",
"cccccccccccccccccccccccccccccc",
"cccccccccccccccccccccccccccccc",
"cccccccccccccccccccccccccccccc",
"cccccccccccccccccccccccccccccc",
"cccccccccccccccccccccccccccccc",
"cccccccccccccccccccccccccccccc",
"cccccccccccccccccccccccccccccc",
"cccccccccccccccccccccccccccccc",
"ccccccccccccddddddcccccccccccc",
"cccccccccccddeffeddccccccccccc",
"cccccccccccdfggggfdccccccccccc",
"ccccccccccceggggggeccccccccccc",
"cccccccccccfggggggfccccccccccc",
"cccccccccccfggggggfccccccccccc",
"ccccccccccceggggggeccccccccccc",
"cccccccccccdfggggfdccccccccccc",
"ccccccccccccdeffedcccccccccccc",
"cccccccccccccccccccccccccccccc",
"cccccccccccccccccccccccccccccc",
"cccccccccccccccccccccccccccccc",
"cccccccccccccccccccccccccccccc",
"cccccccccccccccccccccccccccccc",
"cccccccccccccccccccccccccccccc",
"cccccccccccccccccccccccccccccc",
"cccccccccccccccccccccccccccccc",
"cccccccccccccccccccccccccccccc",
"cccccccccccccccccccccccccccccc",
"cccccccccccccccccccccccccccccc",
"cccccccccccccccccccccccccccccc",
"cccccccccccccccccccccccccccccc",
"cccccccccccccccccccccccccccccc",
"hhhhhhhhhhhhhhhhhhhhhhhhhhhhhh"};
