/* XPM */
static char *top_right_inactive_xpm[] = {
"9 38 23 1",
"a c #282828",
"b c #282828",
"c c #282828",
"d c #282828",         /* */
"e c #282828",
"f c #282828",
"g c #282828",
"h c #282828",
"i c #282828",
"j c #282828",
"k c #282828",
"l c #282828",
"m c #282828",
"n c #282828",
"o c #282828",
"p c #282828",
"q c #282828",
"r c #282828",
"s c #282828",
"t c #282828",
"u c #282828",
"v c #282828",
"w c #282828",
"abcdddddd",
"efghidddd",
"jklegmddd",
"nnnnlopdd",
"nnnnnqrid",
"nnnnnnshd",
"nnnnnnntc",
"nnnnnnnub",
"nnnnnnnva",
"nnnnnnnjw",
"nnnnnnnnw",
"nnnnnnnnw",
"nnnnnnnnw",
"nnnnnnnnw",
"nnnnnnnnw",
"nnnnnnnnw",
"nnnnnnnnw",
"nnnnnnnnw",
"nnnnnnnnw",
"nnnnnnnnw",
"nnnnnnnnw",
"nnnnnnnnw",
"nnnnnnnnw",
"nnnnnnnnw",
"nnnnnnnnw",
"nnnnnnnnw",
"nnnnnnnnw",
"nnnnnnnnw",
"nnnnnnnnw",
"nnnnnnnnw",
"nnnnnnnnw",
"nnnnnnnnw",
"nnnnnnnnw",
"nnnnnnnnw",
"nnnnnnnnw",
"nnnnnnnnw",
"nnnnnnnnw",
"ggggggggw"};
